<?xml version="1.0" encoding="utf-8"?>
<!-- Generator: Adobe Illustrator 16.0.0, SVG Export Plug-In . SVG Version: 6.00 Build 0)  -->
<!DOCTYPE svg PUBLIC "-//W3C//DTD SVG 1.1//EN" "http://www.w3.org/Graphics/SVG/1.1/DTD/svg11.dtd">
<svg version="1.1" id="Layer_1" xmlns="http://www.w3.org/2000/svg" xmlns:xlink="http://www.w3.org/1999/xlink" x="0px" y="0px"
	 width="17.408px" height="27.299px" viewBox="0 0 17.408 27.299" enable-background="new 0 0 17.408 27.299" xml:space="preserve">
<path d="M1.501,27.299c-0.445,0-0.886-0.197-1.182-0.574c-0.511-0.652-0.397-1.596,0.255-2.106L14.36,13.811
	c0.066-0.097,0.066-0.227,0-0.324L0.575,2.681c-0.652-0.511-0.766-1.454-0.255-2.106c0.512-0.652,1.455-0.766,2.106-0.255
	l13.888,10.887c0.047,0.038,0.093,0.077,0.136,0.12c1.279,1.281,1.279,3.365-0.001,4.646c-0.043,0.042-0.088,0.083-0.135,0.12
	L2.425,26.979C2.151,27.194,1.825,27.299,1.501,27.299z" fill="#f48216"/>
</svg>
