<?xml version="1.0" encoding="utf-8"?>
<!-- Generator: Adobe Illustrator 16.0.0, SVG Export Plug-In . SVG Version: 6.00 Build 0)  -->
<!DOCTYPE svg PUBLIC "-//W3C//DTD SVG 1.1//EN" "http://www.w3.org/Graphics/SVG/1.1/DTD/svg11.dtd">
<svg version="1.1" id="Layer_1" xmlns="http://www.w3.org/2000/svg" xmlns:xlink="http://www.w3.org/1999/xlink" x="0px" y="0px"
	 width="27.271px" height="27.271px" viewBox="0 0 27.271 27.271" enable-background="new 0 0 27.271 27.271" xml:space="preserve">
<g>
	<path fill="#fff" d="M13.636,2c6.416,0,11.636,5.219,11.636,11.634c0,6.417-5.22,11.637-11.636,11.637S2,20.051,2,13.634
		C2,7.219,7.22,2,13.636,2 M13.636,0C6.104,0,0,6.104,0,13.634c0,7.531,6.104,13.637,13.636,13.637
		c7.53,0,13.636-6.105,13.636-13.637C27.271,6.104,21.166,0,13.636,0L13.636,0z"/>
	<g>
		<path fill="#fff" d="M14.818,17.416c0,0.643-0.521,1.166-1.166,1.166s-1.166-0.523-1.166-1.166v-3.309
			c0-0.643,0.521-1.166,1.166-1.166s1.166,0.523,1.166,1.166V17.416z"/>
		<circle fill="#fff" cx="13.636" cy="10.015" r="1.324"/>
	</g>
</g>
</svg>
