<?xml version="1.0" encoding="utf-8"?>
<!-- Generator: Adobe Illustrator 16.0.0, SVG Export Plug-In . SVG Version: 6.00 Build 0)  -->
<!DOCTYPE svg PUBLIC "-//W3C//DTD SVG 1.1//EN" "http://www.w3.org/Graphics/SVG/1.1/DTD/svg11.dtd">
<svg version="1.1" id="Layer_1" xmlns="http://www.w3.org/2000/svg" xmlns:xlink="http://www.w3.org/1999/xlink" x="0px" y="0px"
	 width="14.602px" height="11px" viewBox="0 0 14.602 11" enable-background="new 0 0 14.602 11" xml:space="preserve">
<path fill="#E35B00" d="M14.347,3.668l-3.291-3.292c-0.254-0.254-0.59-0.378-0.924-0.375C10.123,0.001,10.117,0,10.111,0
	c-0.064,0-0.129,0.009-0.189,0.022C9.67,0.065,9.427,0.183,9.234,0.376L5.943,3.668c-0.338,0.338-0.338,0.887,0,1.225
	c0.338,0.339,0.887,0.339,1.227,0l2.075-2.075v5.005c0,0.798-0.646,1.444-1.444,1.444H0.867C0.389,9.268,0,9.656,0,10.133
	C0,10.612,0.389,11,0.867,11H7.8c1.752,0,3.178-1.425,3.178-3.178V2.749l2.145,2.145c0.168,0.17,0.393,0.254,0.613,0.254
	s0.441-0.084,0.611-0.254C14.685,4.555,14.685,4.005,14.347,3.668z"/>
</svg>
