<?xml version="1.0" encoding="utf-8"?>
<!-- Generator: Adobe Illustrator 16.0.0, SVG Export Plug-In . SVG Version: 6.00 Build 0)  -->
<!DOCTYPE svg PUBLIC "-//W3C//DTD SVG 1.1//EN" "http://www.w3.org/Graphics/SVG/1.1/DTD/svg11.dtd">
<svg version="1.1" id="Layer_1" xmlns="http://www.w3.org/2000/svg" xmlns:xlink="http://www.w3.org/1999/xlink" x="0px" y="0px"
	 width="30.856px" height="21.329px" viewBox="0 0 30.856 21.329" enable-background="new 0 0 30.856 21.329" xml:space="preserve">
<g fill="#fff">
	<path d="M3.957,5.144h-2.77C0.531,5.144,0,4.612,0,3.957V1.187C0,0.531,0.531,0,1.187,0h2.77c0.656,0,1.187,0.531,1.187,1.187
		v2.771C5.144,4.612,4.612,5.144,3.957,5.144z"/>
	<path d="M29.104,4.322H10.131c-0.968,0-1.751-0.784-1.751-1.751l0,0c0-0.967,0.784-1.751,1.751-1.751h18.974
		c0.967,0,1.752,0.784,1.752,1.751l0,0C30.856,3.538,30.071,4.322,29.104,4.322z"/>
	<path d="M3.957,13.236h-2.77C0.531,13.236,0,12.705,0,12.05V9.279c0-0.655,0.531-1.187,1.187-1.187h2.77
		c0.656,0,1.187,0.531,1.187,1.187v2.771C5.144,12.705,4.612,13.236,3.957,13.236z"/>
	<path d="M29.104,12.415H10.131c-0.968,0-1.751-0.784-1.751-1.751l0,0c0-0.967,0.784-1.751,1.751-1.751h18.974
		c0.967,0,1.752,0.784,1.752,1.751l0,0C30.856,11.631,30.071,12.415,29.104,12.415z"/>
	<path d="M3.957,21.329h-2.77C0.531,21.329,0,20.798,0,20.143v-2.771c0-0.655,0.531-1.187,1.187-1.187h2.77
		c0.656,0,1.187,0.531,1.187,1.187v2.771C5.144,20.798,4.612,21.329,3.957,21.329z"/>
	<path d="M29.104,20.508H10.131c-0.968,0-1.751-0.784-1.751-1.751l0,0c0-0.967,0.784-1.751,1.751-1.751h18.974
		c0.967,0,1.752,0.784,1.752,1.751l0,0C30.856,19.724,30.071,20.508,29.104,20.508z"/>
</g>
</svg>
